<svg width="40" height="40" viewBox="0 0 40 40" fill="none" xmlns="http://www.w3.org/2000/svg">
<path d="M29.56 24.4077L27.4419 19.2561C26.8503 17.823 25.1868 16.7003 23.655 16.7003H16.3094C14.7774 16.7003 13.1138 17.823 12.5218 19.2576L10.3856 24.4533C10.1319 24.6731 9.9223 24.9204 9.78453 25.1823C9.31463 26.077 8.93429 27.718 8.93941 28.8291L8.91772 29.0011C8.92217 29.9919 9.62964 30.8202 10.5724 30.9883V34.2087H13.8047V30.9764H26.1953V34.2087H29.4276V30.9887C30.3704 30.8213 31.1238 29.9926 31.1281 29.0012L31.1399 28.8292C31.1447 27.7181 30.7414 26.0772 30.2371 25.1825C30.0789 24.9023 29.8465 24.6382 29.56 24.4077ZM29.2205 27.8934C29.2205 28.4462 28.7721 28.8944 28.2194 28.8944C27.6665 28.8944 27.2185 28.4462 27.2185 27.8934C27.2185 27.3406 27.6665 26.8924 28.2194 26.8924C28.7721 26.8925 29.2205 27.3407 29.2205 27.8934ZM12.7045 27.8934C12.7045 28.4462 12.2563 28.8944 11.7036 28.8944C11.1509 28.8944 10.7025 28.4462 10.7025 27.8934C10.7025 27.3406 11.1507 26.8924 11.7036 26.8924C12.2563 26.8925 12.7045 27.3407 12.7045 27.8934ZM14.5142 20.085C14.7738 19.4563 15.6461 18.8552 16.3094 18.8552H23.655C24.3181 18.8552 25.1906 19.4563 25.4496 20.0836L26.8799 23.569H13.0843L14.5142 20.085ZM22.7383 29.0909H17.3511C16.7561 29.0909 16.2737 28.6085 16.2737 28.0134C16.2737 27.4184 16.7561 26.936 17.3511 26.936H22.7383C23.3333 26.936 23.8158 27.4184 23.8158 28.0134C23.8158 28.6085 23.3333 29.0909 22.7383 29.0909Z" fill="black"/>
<path d="M29.4249 0H7.65421C5.94606 0 4.51172 1.3895 4.51172 3.09764V36.9024C4.51172 38.6105 5.94606 40 7.65421 40H32.4354C34.1435 40 35.4881 38.6105 35.4881 36.9024V6.10828L29.4249 0ZM32.4354 37.8451H7.65421C7.13448 37.8451 6.6666 37.4221 6.6666 36.9024V3.09764C6.6666 2.57791 7.13448 2.15488 7.65421 2.15488H27.8114V7.67677H33.3333V36.9024C33.3333 37.4221 32.9551 37.8451 32.4354 37.8451Z" fill="black"/>
<path d="M20 6.5993H8.82153V8.75419H20V6.5993Z" fill="black"/>
<path d="M31.0438 11.0438H8.82153V13.1986H31.0438V11.0438Z" fill="black"/>
</svg>
