<svg width="16" height="16" viewBox="0 0 16 16" fill="none" xmlns="http://www.w3.org/2000/svg">
<path d="M15 1H8.717C7.095 1 5.5375 1.7685 4.55075 3.05575L1.3335 7.25175C0.63475 8.16325 0.25 9.2975 0.25 10.4462V14.25C0.25 14.6635 0.5865 15 1 15H15C15.4135 15 15.75 14.6635 15.75 14.25V1.75C15.75 1.3365 15.4135 1 15 1ZM1.73025 7.556L4.9475 3.36C5.84025 2.19525 7.2495 1.5 8.717 1.5H15C15.1377 1.5 15.25 1.61225 15.25 1.75V12H0.75V10.4462C0.75 9.407 1.09825 8.3805 1.73025 7.556ZM15 14.5H1C0.86225 14.5 0.75 14.3877 0.75 14.25V13.5H1.75V13H0.75V12.5H15.25V13H2V13.5H15.25V14.25C15.25 14.3877 15.1377 14.5 15 14.5Z" fill="#737373"/>
<path d="M14.25 9.5H12.25C11.9742 9.5 11.75 9.72425 11.75 10V10.5C11.75 10.7758 11.9742 11 12.25 11H14.25C14.5257 11 14.75 10.7758 14.75 10.5V10C14.75 9.72425 14.5257 9.5 14.25 9.5ZM12.25 10H13.25V10.5H12.25V10ZM14.25 10.5H13.75V10H14.25V10.5Z" fill="#737373"/>
<path d="M3.25 9H4.75H14.75V2H8.72925C7.408 2 6.1425 2.62825 5.344 3.68075L3.20025 6.505C2.81025 6.53125 2.5 6.8535 2.5 7.25V8.25C2.5 8.6635 2.8365 9 3.25 9ZM5.742 3.983C6.44675 3.05425 7.5635 2.5 8.72925 2.5H14.25V8.5H5.7435C5.90225 8.2905 6 8.0325 6 7.75V6.5H3.83175L5.742 3.983ZM3 7.25C3 7.11225 3.11225 7 3.25 7H5.5V7.75C5.5 8.1635 5.1635 8.5 4.75 8.5H3.25C3.11225 8.5 3 8.38775 3 8.25V7.25Z" fill="#737373"/>
</svg>
