<svg width="24" height="24" viewBox="0 0 24 24" fill="none" xmlns="http://www.w3.org/2000/svg">
<path fill-rule="evenodd" clip-rule="evenodd" d="M18.5242 12.0005C18.5242 15.8665 15.4686 19.0005 11.6992 19.0005C11.6992 15.6865 12.6742 11.5005 17.5492 11.0005H18.455C18.5012 11.3317 18.5243 11.6659 18.5242 12.0005Z" stroke="#737373" stroke-width="1.4" stroke-linecap="round" stroke-linejoin="round"/>
<path d="M5.92586 10.2543C5.51381 10.2121 5.14551 10.5119 5.10325 10.9239C5.06099 11.336 5.36077 11.7043 5.77282 11.7465L5.92586 10.2543ZM11.6993 19.0004V19.7504C11.8982 19.7505 12.089 19.6714 12.2296 19.5308C12.3703 19.3901 12.4493 19.1994 12.4493 19.0004H11.6993ZM17.7124 11.1049C17.7702 11.5151 18.1495 11.8008 18.5596 11.7431C18.9698 11.6854 19.2555 11.3061 19.1978 10.8959L17.7124 11.1049ZM5.84934 11.7504C6.26355 11.7504 6.59934 11.4146 6.59934 11.0004C6.59934 10.5862 6.26355 10.2504 5.84934 10.2504V11.7504ZM4.94356 10.2504C4.52935 10.2504 4.19356 10.5862 4.19356 11.0004C4.19356 11.4146 4.52935 11.7504 4.94356 11.7504V10.2504ZM5.84934 10.2504C5.43513 10.2504 5.09934 10.5862 5.09934 11.0004C5.09934 11.4146 5.43513 11.7504 5.84934 11.7504V10.2504ZM17.5493 11.7504C17.9636 11.7504 18.2993 11.4146 18.2993 11.0004C18.2993 10.5862 17.9636 10.2504 17.5493 10.2504V11.7504ZM5.77282 11.7465C7.96326 11.9712 9.21226 12.9978 9.9481 14.3117C10.7101 15.6722 10.9493 17.3973 10.9493 19.0004H12.4493C12.4493 17.2895 12.2011 15.2646 11.2568 13.5787C10.2864 11.846 8.61042 10.5297 5.92586 10.2543L5.77282 11.7465ZM11.6994 18.2504C8.4741 18.2501 5.78793 15.6476 5.63207 12.2994L4.13369 12.3691C4.32525 16.4842 7.63957 19.75 11.6993 19.7504L11.6994 18.2504ZM5.63207 12.2994C5.47616 8.95005 7.91011 6.09446 11.1225 5.77876L10.9758 4.28595C6.93636 4.68293 3.94219 8.25516 4.13369 12.3691L5.63207 12.2994ZM11.1225 5.77876C14.3322 5.46332 17.2458 7.78919 17.7124 11.1049L19.1978 10.8959C18.6237 6.81651 15.0179 3.88871 10.9758 4.28595L11.1225 5.77876ZM5.84934 10.2504H4.94356V11.7504H5.84934V10.2504ZM5.84934 11.7504H17.5493V10.2504H5.84934V11.7504Z" fill="#737373"/>
</svg>
