<svg width="16" height="16" viewBox="0 0 16 16" fill="none" xmlns="http://www.w3.org/2000/svg">
<path d="M5.34993 1.60002C4.32493 1.63627 2.83243 1.93502 0.829932 2.82002C0.712432 2.85627 0.626182 2.95877 0.608682 3.08002C0.591182 3.20252 0.646182 3.32377 0.748682 3.39252C0.851182 3.46002 0.983682 3.46377 1.08993 3.40002C3.03243 2.54127 4.44493 2.27252 5.36993 2.24002C5.83243 2.22377 6.16868 2.26627 6.38993 2.32002C6.50118 2.34752 6.58368 2.37752 6.62993 2.40002C6.63618 2.40252 6.63493 2.40627 6.63993 2.41002C6.64618 2.42252 6.65493 2.43252 6.65993 2.45002C6.67618 2.50877 6.68993 2.59252 6.70993 2.69002C6.74993 2.88502 6.79368 3.13752 6.82993 3.38002C6.89243 3.79752 6.92743 4.08877 6.93993 4.19002C6.68743 4.19752 6.65868 4.19752 6.35993 4.21002C5.94118 4.22627 5.50993 4.24127 5.15993 4.27002C4.98493 4.28377 4.82868 4.30127 4.69993 4.32002C4.57118 4.33877 4.49493 4.34002 4.35993 4.41002C3.90243 4.65002 3.59118 5.11377 3.31993 5.60002C3.16993 5.86877 3.04243 6.14002 2.91993 6.40002C2.79743 6.18252 2.59743 6.08002 2.51993 6.08002C2.35368 6.08002 1.77993 6.25877 1.72993 6.30002C1.67993 6.34127 1.59993 6.72127 1.59993 6.83002C1.59993 6.93877 1.82243 7.03002 1.94993 7.03002C2.03243 7.03002 2.33618 7.03752 2.60993 7.04002C2.56118 7.10752 2.44618 7.23127 2.27993 7.39002C2.08368 7.57877 1.84493 7.80752 1.64993 8.10002C1.46243 8.38002 1.27993 8.91377 1.27993 9.92002C1.27993 10.04 1.28368 10.1825 1.28993 10.32H1.27993V13.76C1.27993 14.11 1.56993 14.4 1.91993 14.4H3.19993C3.54993 14.4 3.83993 14.11 3.83993 13.76V13.27C4.84993 13.36 6.20368 13.44 7.99993 13.44C9.79618 13.44 11.1499 13.36 12.1599 13.27V13.76C12.1599 14.11 12.4499 14.4 12.7999 14.4H14.0799C14.4299 14.4 14.7199 14.11 14.7199 13.76V10.32H14.7099C14.7162 10.1825 14.7199 10.04 14.7199 9.92002C14.7199 8.91377 14.5374 8.38002 14.3499 8.10002C14.1549 7.80752 13.9162 7.57877 13.7199 7.39002C13.5537 7.23127 13.4387 7.10752 13.3899 7.04002C13.6637 7.03752 13.9674 7.03002 14.0499 7.03002C14.1774 7.03002 14.3999 6.93877 14.3999 6.83002C14.3999 6.72127 14.3199 6.34127 14.2699 6.30002C14.2199 6.25877 13.6462 6.08002 13.4799 6.08002C13.4024 6.08002 13.2024 6.18252 13.0799 6.40002C12.9574 6.14002 12.8299 5.86877 12.6799 5.60002C12.4087 5.11377 12.0974 4.65002 11.6399 4.41002C11.5049 4.34002 11.4287 4.33877 11.2999 4.32002C11.1712 4.30127 11.0149 4.28377 10.8399 4.27002C10.4899 4.24127 10.0587 4.22627 9.63993 4.21002C9.34118 4.19752 9.31243 4.19752 9.05993 4.19002C9.07243 4.08877 9.10743 3.79752 9.16993 3.38002C9.20618 3.13752 9.24993 2.88502 9.28993 2.69002C9.30993 2.59252 9.32368 2.50877 9.33993 2.45002C9.34493 2.43252 9.35368 2.42252 9.35993 2.41002C9.36493 2.40627 9.36368 2.40252 9.36993 2.40002C9.41618 2.37752 9.49868 2.34752 9.60993 2.32002C9.83118 2.26627 10.1674 2.22377 10.6299 2.24002C11.5549 2.27252 12.9674 2.54127 14.9099 3.40002C15.0162 3.46377 15.1487 3.46002 15.2512 3.39252C15.3537 3.32377 15.4087 3.20252 15.3912 3.08002C15.3737 2.95877 15.2874 2.85627 15.1699 2.82002C13.1674 1.93502 11.6749 1.63627 10.6499 1.60002C10.1374 1.58252 9.74118 1.62877 9.44993 1.70002C9.30493 1.73502 9.18868 1.78252 9.08993 1.83002C8.99118 1.87752 8.91493 1.90252 8.82993 2.03002C8.76368 2.12877 8.75368 2.19627 8.72993 2.28002C8.70618 2.36377 8.68118 2.45252 8.65993 2.56002C8.61618 2.77377 8.57743 3.03127 8.53993 3.28002C8.47118 3.73627 8.42868 4.10127 8.41993 4.17002C8.33118 4.16752 8.00993 4.16002 8.00993 4.16002H7.98993C7.98993 4.16002 7.66868 4.16752 7.57993 4.17002C7.57118 4.10127 7.52868 3.73627 7.45993 3.28002C7.42243 3.03127 7.38368 2.77377 7.33993 2.56002C7.31868 2.45252 7.29368 2.36377 7.26993 2.28002C7.24618 2.19627 7.23618 2.12877 7.16993 2.03002C7.08493 1.90252 7.00868 1.87752 6.90993 1.83002C6.81118 1.78252 6.69493 1.73502 6.54993 1.70002C6.25868 1.62877 5.86243 1.58252 5.34993 1.60002ZM7.98993 4.80002H8.00993C8.02868 4.80002 8.79118 4.81752 9.60993 4.85002C10.0237 4.86627 10.4562 4.88252 10.7899 4.91002C10.9574 4.92377 11.0949 4.94502 11.1999 4.96002C11.2699 4.97002 11.3324 4.98752 11.3499 4.99002C11.5887 5.12002 11.8749 5.47252 12.1199 5.91002C12.2087 6.06877 12.2887 6.23252 12.3699 6.40002H3.62993C3.71118 6.23252 3.79118 6.06877 3.87993 5.91002C4.12243 5.47627 4.40243 5.12377 4.63993 4.99002C4.63868 4.99002 4.64868 4.99127 4.64993 4.99002C4.66743 4.98752 4.72993 4.97002 4.79993 4.96002C4.90493 4.94502 5.04243 4.92377 5.20993 4.91002C5.54368 4.88252 5.97618 4.86627 6.38993 4.85002C7.20868 4.81752 7.97118 4.80002 7.98993 4.80002ZM3.32993 7.04002H12.6699C12.7049 7.11502 12.7462 7.20002 12.7799 7.27002C12.8974 7.51502 13.0862 7.66377 13.2799 7.85002C13.4062 7.97127 13.5349 8.10377 13.6499 8.24002C13.6362 8.23877 13.6249 8.23752 13.6099 8.24002C11.9449 8.50877 11.9337 8.57377 11.5199 8.92002C11.5199 8.92002 11.6974 9.01752 12.0099 9.20002C12.1887 9.30502 12.4224 9.28002 12.5899 9.27002C12.7574 9.26002 13.0949 9.23377 13.5399 9.19002C13.9787 9.14752 13.9299 8.96377 13.8999 8.76002C13.8937 8.71502 13.8787 8.62752 13.8599 8.54002C13.9437 8.71252 14.0799 9.12627 14.0799 9.92002C14.0799 10.5375 13.9587 11.5888 13.8799 12.19C13.8612 12.335 13.7537 12.4488 13.6099 12.47C13.2674 12.52 12.6912 12.5888 11.9599 12.65L11.0699 11.64C10.8274 11.3625 10.4787 11.2 10.1099 11.2H5.88993C5.52118 11.2 5.17243 11.3625 4.92993 11.64L4.03993 12.65C3.30868 12.5888 2.73243 12.52 2.38993 12.47C2.24618 12.4488 2.13868 12.335 2.11993 12.19C2.04118 11.5888 1.91993 10.5375 1.91993 9.92002C1.91993 9.12627 2.05618 8.71252 2.13993 8.54002C2.12118 8.62752 2.10618 8.71502 2.09993 8.76002C2.06993 8.96377 2.02118 9.14752 2.45993 9.19002C2.90493 9.23377 3.24243 9.26002 3.40993 9.27002C3.57743 9.28002 3.81118 9.30502 3.98993 9.20002C4.30243 9.01752 4.47993 8.92002 4.47993 8.92002C4.06618 8.57377 4.05493 8.50877 2.38993 8.24002C2.37493 8.23752 2.36368 8.23877 2.34993 8.24002C2.46493 8.10377 2.59368 7.97127 2.71993 7.85002C2.91368 7.66377 3.10243 7.51502 3.21993 7.27002C3.25368 7.20002 3.29493 7.11502 3.32993 7.04002ZM7.57993 8.92002C6.80868 8.93502 5.21243 9.00127 4.79993 9.28002C4.79993 9.28002 7.10243 9.35252 7.40993 9.48002C7.71743 9.60752 7.99993 9.92002 7.99993 9.92002C7.99993 9.92002 8.28243 9.60752 8.58993 9.48002C8.89743 9.35252 11.1999 9.28002 11.1999 9.28002C10.6499 8.90877 7.99993 8.92002 7.99993 8.92002C7.99993 8.92002 7.83743 8.91502 7.57993 8.92002ZM5.88993 11.84H10.1099C10.2949 11.84 10.4687 11.9213 10.5899 12.06L11.1499 12.7C10.2849 12.7538 9.26243 12.8 7.99993 12.8C6.73743 12.8 5.71493 12.7538 4.84993 12.7L5.40993 12.06C5.53118 11.9213 5.70493 11.84 5.88993 11.84ZM1.91993 12.95C2.03243 13.0225 2.16118 13.08 2.29993 13.1C2.52118 13.1325 2.82743 13.17 3.19993 13.21V13.76H1.91993V12.95ZM14.0799 12.95V13.76H12.7999V13.21C13.1724 13.17 13.4787 13.1325 13.6999 13.1C13.8387 13.08 13.9674 13.0225 14.0799 12.95Z" fill="#737373"/>
</svg>
