<svg width="16" height="16" viewBox="0 0 16 16" fill="none" xmlns="http://www.w3.org/2000/svg">
<path d="M3.33325 6H12.6666M9.99992 12V10M5.99992 12H6.00659M7.99992 12H8.00659M7.99992 10H8.00659M5.99992 10H6.00659M9.99992 8H10.0066M7.99992 8H8.00659M5.99992 8H6.00659M5.46659 14H10.5333C11.28 14 11.6534 14 11.9386 13.8547C12.1895 13.7269 12.3935 13.5229 12.5213 13.272C12.6666 12.9868 12.6666 12.6134 12.6666 11.8667V4.13333C12.6666 3.3866 12.6666 3.01323 12.5213 2.72801C12.3935 2.47713 12.1895 2.27315 11.9386 2.14533C11.6534 2 11.28 2 10.5333 2H5.46659C4.71985 2 4.34648 2 4.06127 2.14533C3.81038 2.27315 3.60641 2.47713 3.47858 2.72801C3.33325 3.01323 3.33325 3.38659 3.33325 4.13333V11.8667C3.33325 12.6134 3.33325 12.9868 3.47858 13.272C3.60641 13.5229 3.81038 13.7269 4.06127 13.8547C4.34648 14 4.71985 14 5.46659 14Z" stroke="black" stroke-linecap="round" stroke-linejoin="round"/>
</svg>
