<svg width="40" height="40" viewBox="0 0 40 40" fill="none" xmlns="http://www.w3.org/2000/svg">
<path d="M8.8 8.79999C3.95 8.79999 0 12.75 0 17.6C0 19.4781 0.596875 21.2156 1.6 22.6469V33.6031C1.6 34.9312 2.67188 36 4 36H5.675C6.05625 38.2625 8.03125 40 10.4 40C12.7688 40 14.7438 38.2625 15.125 36H22.525C23.1188 36 23.6594 35.7594 24.0656 35.3812C24.475 35.7437 24.9969 35.9937 25.5938 36H26.475C26.8563 38.2625 28.8313 40 31.2 40C33.8406 40 36 37.8406 36 35.2C36 32.5594 33.8406 30.4 31.2 30.4C28.8313 30.4 26.8563 32.1375 26.475 34.4H25.6063C25.4563 34.4 25.2313 34.3062 25.0625 34.1375C24.8906 33.9656 24.8 33.7469 24.8 33.6V18.4C24.8 18.1 25.3 17.6 25.6 17.6H32C32.6344 17.6 33.5375 18.2937 34.15 19.0281L34.275 19.2H30.4C29.125 19.2 28 20.2312 28 21.6V24.8C28 25.4656 28.3094 26.0406 28.7344 26.4656C29.1594 26.8906 29.7344 27.2 30.4 27.2H38.4V33.6C38.4 33.9 37.9 34.4 37.6 34.4H36V36H37.6C38.9281 36 40 34.9281 40 33.6V25.9094C40 24.0781 38.7219 22.4594 38.7219 22.4594L38.7125 22.45L35.3969 18.0281L35.3844 18.0125C34.6469 17.1219 33.5312 16 32 16H25.6C25.3156 16 25.05 16.0562 24.8 16.1469V14.325C24.8 13.0969 23.8313 12 22.55 12H15.5844C13.9656 10.0469 11.525 8.79999 8.8 8.79999ZM8.8 10.4C12.7844 10.4 16 13.6156 16 17.6C16 21.5844 12.7844 24.8 8.8 24.8C4.81562 24.8 1.6 21.5844 1.6 17.6C1.6 13.6156 4.81562 10.4 8.8 10.4ZM8.7875 11.1875C8.34688 11.1969 7.99375 11.5594 8 12V16.625C7.70625 16.8656 7.5375 17.2219 7.5375 17.6C7.5375 17.6406 7.54063 17.6812 7.54375 17.725L5.83438 19.4344C5.625 19.6344 5.54062 19.9344 5.61562 20.2125C5.6875 20.4937 5.90625 20.7125 6.1875 20.7844C6.46562 20.8594 6.76562 20.775 6.96563 20.5656L8.675 18.8562C8.71562 18.8594 8.75938 18.8625 8.8 18.8625C9.49688 18.8625 10.0625 18.2969 10.0625 17.6C10.0625 17.2219 9.89375 16.8656 9.6 16.625V12C9.60312 11.7844 9.51875 11.575 9.36563 11.4219C9.2125 11.2687 9.00313 11.1844 8.7875 11.1875ZM16.6281 13.6H22.55C22.8938 13.6 23.2 13.9312 23.2 14.325V18.3844C23.2 18.3906 23.2 18.3937 23.2 18.4V33.6C23.2 33.6062 23.2 33.6094 23.2 33.6125V33.725C23.2 34.1031 22.9031 34.4 22.525 34.4H15.125C14.7438 32.1375 12.7688 30.4 10.4 30.4C8.03125 30.4 6.05625 32.1375 5.675 34.4H4C3.7 34.4 3.2 33.9 3.2 33.6031V24.3781C4.72188 25.6406 6.675 26.4 8.8 26.4C13.65 26.4 17.6 22.45 17.6 17.6C17.6 16.1594 17.2469 14.8 16.6281 13.6ZM30.4 20.8H35.475L37.4188 23.3906C37.4219 23.3969 38.1531 24.6437 38.3063 25.6H30.4C30.2656 25.6 30.0406 25.5094 29.8656 25.3344C29.6906 25.1594 29.6 24.9344 29.6 24.8V21.6C29.6 21.1969 30.075 20.8 30.4 20.8ZM10.4 32C12.1781 32 13.6 33.4219 13.6 35.2C13.6 36.9781 12.1781 38.4 10.4 38.4C8.62188 38.4 7.2 36.9781 7.2 35.2C7.2 33.4219 8.62188 32 10.4 32ZM31.2 32C32.9781 32 34.4 33.4219 34.4 35.2C34.4 36.9781 32.9781 38.4 31.2 38.4C29.4219 38.4 28 36.9781 28 35.2C28 33.4219 29.4219 32 31.2 32Z" fill="black"/>
</svg>
