<svg width="40" height="40" viewBox="0 0 40 40" fill="none" xmlns="http://www.w3.org/2000/svg">
<path d="M8.10837 18.9639C8.4774 18.9639 8.77656 18.6648 8.77656 18.2958C8.77656 17.9267 8.4774 17.6276 8.10837 17.6276C7.73934 17.6276 7.44019 17.9267 7.44019 18.2958C7.44019 18.6648 7.73934 18.9639 8.10837 18.9639Z" fill="black"/>
<path d="M35.6084 5.83894C35.9774 5.83894 36.2766 5.53978 36.2766 5.17075C36.2766 4.80172 35.9774 4.50256 35.6084 4.50256C35.2393 4.50256 34.9402 4.80172 34.9402 5.17075C34.9402 5.53978 35.2393 5.83894 35.6084 5.83894Z" fill="black"/>
<path d="M6.875 11.25C7.56536 11.25 8.125 10.6904 8.125 10C8.125 9.30964 7.56536 8.75 6.875 8.75C6.18464 8.75 5.625 9.30964 5.625 10C5.625 10.6904 6.18464 11.25 6.875 11.25Z" stroke="black" stroke-width="1.2" stroke-linecap="round" stroke-linejoin="round"/>
<path d="M32.8442 11.9092L34.7192 13.7842" stroke="black" stroke-width="1.2" stroke-linecap="round" stroke-linejoin="round"/>
<path d="M34.7192 11.9092L32.8442 13.7842" stroke="black" stroke-width="1.2" stroke-linecap="round" stroke-linejoin="round"/>
<path d="M19.4431 35.754L19.8421 37.0769C19.8913 37.2399 19.9721 37.3916 20.0799 37.5234C20.1877 37.6552 20.3205 37.7645 20.4705 37.845C20.6206 37.9255 20.785 37.9756 20.9544 37.9926C21.1239 38.0095 21.295 37.9929 21.458 37.9438L32.1392 34.7222C32.3023 34.673 32.454 34.5922 32.5858 34.4844C32.7177 34.3766 32.8269 34.2439 32.9074 34.0938C32.988 33.9437 33.0381 33.7793 33.0551 33.6099C33.072 33.4404 33.0554 33.2693 33.0062 33.1063L27.2865 14.1416C27.2192 13.9186 27.0931 13.7178 26.9215 13.5604C26.7498 13.4029 26.5389 13.2946 26.3109 13.2469L23.7006 12.7003" stroke="black" stroke-width="1.2" stroke-linecap="round" stroke-linejoin="round"/>
<path d="M14.4256 12.3588L12.5506 13.3814C12.3461 13.493 12.1755 13.6576 12.0566 13.8579C11.9377 14.0582 11.875 14.2868 11.875 14.5198V34.3284C11.875 34.4987 11.9085 34.6673 11.9737 34.8246C12.0389 34.9819 12.1344 35.1249 12.2548 35.2453C12.3752 35.3657 12.5182 35.4612 12.6755 35.5263C12.8328 35.5915 13.0014 35.625 13.1717 35.625H24.3283C24.4986 35.625 24.6672 35.5915 24.8245 35.5263C24.9818 35.4612 25.1248 35.3657 25.2452 35.2453C25.3656 35.1249 25.4611 34.9819 25.5263 34.8246C25.5915 34.6673 25.625 34.4987 25.625 34.3284V14.5198C25.625 14.2868 25.5623 14.0581 25.4434 13.8578C25.3245 13.6574 25.1538 13.4928 24.9493 13.3813L19.3709 10.3386C19.1804 10.2347 18.9669 10.1802 18.75 10.1802C18.5331 10.1802 18.3196 10.2347 18.1291 10.3386L16.3261 11.322" stroke="black" stroke-width="1.2" stroke-linecap="round" stroke-linejoin="round"/>
<path d="M17.5912 12.2758C17.9144 12.0219 18.312 11.8813 18.7229 11.8754C19.1338 11.8696 19.5352 11.9989 19.8655 12.2435C20.1957 12.4881 20.4364 12.8344 20.5506 13.2291C20.6648 13.6239 20.6462 14.0452 20.4976 14.4284C20.3489 14.8115 20.0786 15.1352 19.728 15.3497C19.3775 15.5641 18.9662 15.6575 18.5574 15.6154C18.1486 15.5733 17.765 15.398 17.4655 15.1166C17.1661 14.8352 16.9673 14.4632 16.8999 14.0579" stroke="black" stroke-width="1.2" stroke-linecap="round" stroke-linejoin="round"/>
<path d="M22.9673 12.3003C23.8845 11.1623 24.3817 9.74293 24.375 8.28125C24.375 4.92125 21.8518 2.1875 18.75 2.1875C15.6482 2.1875 13.125 4.92125 13.125 8.28125C13.125 11.6412 15.6482 14.375 18.75 14.375C19.3813 14.3732 20.0071 14.2566 20.5967 14.0307" stroke="black" stroke-width="1.2" stroke-linejoin="round"/>
<path d="M19.913 12.2898C19.5408 12.4281 19.147 12.4993 18.75 12.5C16.6821 12.5 15 10.6076 15 8.28125C15 5.95488 16.6821 4.0625 18.75 4.0625C20.8179 4.0625 22.5 5.95488 22.5 8.28125C22.5108 9.43322 22.0749 10.5446 21.2839 11.3821" stroke="black" stroke-width="1.2" stroke-linejoin="round"/>
<path d="M15 33.125H21.25" stroke="black" stroke-width="1.2" stroke-linecap="round" stroke-linejoin="round"/>
<path d="M15 31.25H16.875" stroke="black" stroke-width="1.2" stroke-linecap="round" stroke-linejoin="round"/>
<path d="M21.25 19.375L16.25 25.625" stroke="black" stroke-width="1.2" stroke-linecap="round" stroke-linejoin="round"/>
<path d="M16.5625 21.25C17.0803 21.25 17.5 20.8303 17.5 20.3125C17.5 19.7947 17.0803 19.375 16.5625 19.375C16.0447 19.375 15.625 19.7947 15.625 20.3125C15.625 20.8303 16.0447 21.25 16.5625 21.25Z" stroke="black" stroke-width="1.2" stroke-linecap="round" stroke-linejoin="round"/>
<path d="M20.9375 25.625C21.4553 25.625 21.875 25.2053 21.875 24.6875C21.875 24.1697 21.4553 23.75 20.9375 23.75C20.4197 23.75 20 24.1697 20 24.6875C20 25.2053 20.4197 25.625 20.9375 25.625Z" stroke="black" stroke-width="1.2" stroke-linecap="round" stroke-linejoin="round"/>
</svg>
