<svg width="40" height="40" viewBox="0 0 40 40" fill="none" xmlns="http://www.w3.org/2000/svg">
<g clip-path="url(#clip0_36_3081)">
<path d="M20.6979 24.7686C21.6069 24.7686 22.3464 24.0278 22.3464 23.1167C22.3464 22.2095 21.6082 21.4714 20.7001 21.4714L16.5527 18.4627L15.856 19.1904L19.0491 23.1664L19.0531 23.22C19.1049 24.0888 19.8275 24.7686 20.6979 24.7686Z" fill="black"/>
<path d="M19.9991 1.61786C8.97096 1.61786 0 10.5885 0 21.6152C0 25.4636 1.09731 29.2015 3.17563 32.4231L3.32538 32.6552H5.81287L9.1846 29.7104L7.72854 28.0391L4.43958 30.9103L4.33254 30.7295C2.71272 27.9597 1.85795 24.8069 1.85795 21.6144C1.85795 21.5216 1.86325 21.4334 1.87351 21.3188L1.88642 20.9829L5.891 20.9781V18.7617H2.10017L2.1346 18.5576C2.65909 15.4648 3.97765 12.5562 5.94739 10.1459L6.06955 9.99647L8.89262 12.8166L10.4641 11.2531L7.60561 8.39342L7.74013 8.27049C10.6841 5.56395 14.3204 3.93553 18.258 3.56089L18.4485 3.54335L18.4512 8.16743H20.666V3.50726L20.8479 3.5162C25.2142 3.71902 29.3557 5.48715 32.5105 8.49649L32.6384 8.61809L29.7162 11.5465L31.2854 13.1126L34.1334 10.262L34.2552 10.4167C36.1119 12.7766 37.3615 15.5924 37.8653 18.559L37.8997 18.7624L33.9623 18.7654V20.9823H38.1151L38.1303 21.3387C38.1363 21.4314 38.1423 21.5222 38.1423 21.615C38.1423 24.7949 37.2947 27.9318 35.6918 30.6903L35.578 30.8864L32.4788 27.7899L30.9144 29.3584L34.2089 32.6549H36.6752L36.8262 32.4217C38.9029 29.1974 40.0002 25.4602 40.0002 21.6143C40 10.5885 31.0282 1.61786 19.9991 1.61786Z" fill="black"/>
<path d="M28.9136 36.0901H11.0857V38.3822H28.9136V36.0901Z" fill="black"/>
</g>
<defs>
<clipPath id="clip0_36_3081">
<rect width="40" height="40" fill="white"/>
</clipPath>
</defs>
</svg>
